<?xml version="1.0" encoding="utf-8"?>
<!-- Generator: Adobe Illustrator 19.1.0, SVG Export Plug-In . SVG Version: 6.00 Build 0)  -->
<svg version="1.1" id="Layer_1" xmlns="http://www.w3.org/2000/svg" xmlns:xlink="http://www.w3.org/1999/xlink" x="0px" y="0px"
	 viewBox="0 0 200 50" style="enable-background:new 0 0 200 50;" xml:space="preserve">
<style type="text/css">
	.st0{fill:#7AC943;stroke:#999999;stroke-miterlimit:10;}
	.st1{fill:#7AC943;}
	.st2{fill:#999999;}
</style>
<path class="st0" d="M20,25.4c1,1.6,3,1.7,4.6,0.7c1.9-1.2,2.5-4,1.3-5.9c-1.5-2.4-5.4-4.3-9.8-1.7c-4.6,2.7-3.9,8.5-2,11.5
	c2.4,3.8,10,4.9,13.8,2.5c4.7-3,6.1-11.9,3.1-16.6C25.2,6.7,9.7,7.6,6.6,23.2c-0.7,3.7,0.1,7.5,2.1,10.7c5.9,9.2,13.9,11.7,27.4,6.7
	c19.4-7.2,30.3-9.2,39.1-6.2c7.5,2.6,6.6-17.4-3.7-16.6c-10.3,0.8-40.3,11.5-40.3,11.5"/>
<g>
	<path class="st1" d="M90.6,25.6c0-1.2,0.2-2.2,0.6-3.3c0.4-1,1-1.9,1.8-2.6c0.8-0.8,1.6-1.3,2.7-1.8c1-0.4,2.1-0.6,3.2-0.6
		c1.2,0,2.2,0.2,3.2,0.6c1,0.4,1.9,1,2.7,1.8c0.8,0.8,1.4,1.6,1.8,2.6c0.4,1,0.7,2.1,0.7,3.3c0,1.1-0.2,2.2-0.7,3.2
		c-0.4,1-1,1.9-1.8,2.7c-0.8,0.8-1.7,1.4-2.7,1.8c-1,0.4-2.1,0.6-3.2,0.6c-1.1,0-2.2-0.2-3.2-0.6c-1-0.4-1.9-1-2.7-1.8
		c-0.8-0.8-1.4-1.7-1.8-2.7C90.8,27.8,90.6,26.8,90.6,25.6z M93.9,25.6c0,0.7,0.1,1.4,0.4,2c0.3,0.6,0.6,1.2,1.1,1.6
		c0.5,0.5,1,0.8,1.6,1.1c0.6,0.3,1.3,0.4,2,0.4c0.7,0,1.3-0.1,2-0.4c0.6-0.3,1.2-0.6,1.6-1.1c0.5-0.5,0.8-1,1.1-1.6s0.4-1.3,0.4-2
		c0-0.7-0.1-1.3-0.4-2c-0.3-0.6-0.6-1.1-1.1-1.6c-0.5-0.5-1-0.8-1.6-1.1c-0.6-0.3-1.3-0.4-2-0.4c-0.7,0-1.4,0.1-2,0.4
		c-0.6,0.3-1.2,0.6-1.6,1.1c-0.5,0.5-0.8,1-1.1,1.6C94,24.3,93.9,24.9,93.9,25.6z"/>
	<path class="st1" d="M116.8,17.3c1.2,0,2.2,0.2,3.2,0.6c1,0.4,1.9,1,2.7,1.8c0.8,0.8,1.4,1.6,1.8,2.6c0.4,1,0.7,2.1,0.7,3.3
		c0,1.1-0.2,2.2-0.7,3.2c-0.4,1-1,1.9-1.8,2.7c-0.8,0.8-1.7,1.4-2.7,1.8c-1,0.4-2.1,0.6-3.2,0.6h-5v6.7h-3.3v-15
		c0-1.2,0.2-2.2,0.7-3.3c0.4-1,1-1.9,1.8-2.6c0.8-0.8,1.6-1.3,2.7-1.8C114.5,17.5,115.6,17.3,116.8,17.3z M118.7,30.3
		c0.6-0.3,1.2-0.6,1.6-1.1c0.5-0.5,0.8-1,1.1-1.6s0.4-1.3,0.4-2c0-0.7-0.1-1.3-0.4-2c-0.3-0.6-0.6-1.1-1.1-1.6
		c-0.5-0.5-1-0.8-1.6-1.1c-0.6-0.3-1.3-0.4-2-0.4s-1.3,0.1-2,0.4c-0.6,0.3-1.1,0.6-1.6,1.1c-0.5,0.5-0.8,1-1.1,1.6
		c-0.3,0.6-0.4,1.3-0.4,2v5.1h5C117.4,30.7,118.1,30.5,118.7,30.3z"/>
	<path class="st1" d="M136.2,30.6v3.3h-1.6c-1.1,0-2.2-0.2-3.2-0.6c-1-0.4-1.9-1-2.7-1.8c-0.8-0.8-1.4-1.7-1.8-2.7
		c-0.4-1-0.7-2.1-0.7-3.2v-15h3.3v10h6.7v3.3h-6.7v1.7c0,0.7,0.1,1.4,0.4,2c0.3,0.6,0.6,1.2,1.1,1.6c0.5,0.5,1,0.8,1.6,1.1
		c0.6,0.3,1.3,0.4,2,0.4H136.2z"/>
	<path class="st1" d="M150.4,21c-0.6,0.3-1.2,0.6-1.6,1.1c-0.5,0.5-0.8,1-1.1,1.6c-0.3,0.6-0.4,1.3-0.4,2c0,0.7,0.1,1.4,0.4,2
		c0.3,0.6,0.6,1.2,1.1,1.6c0.5,0.5,1,0.8,1.6,1.1c0.6,0.3,1.3,0.4,2,0.4h1.6v3.3h-1.6c-1.4,0-2.7-0.3-3.8-0.9
		c-1.2-0.6-2.1-1.4-2.9-2.5c-0.8,1-1.7,1.9-2.9,2.5c-1.2,0.6-2.4,0.9-3.8,0.9h-1.7v-3.3h1.7c0.7,0,1.3-0.1,2-0.4
		c0.6-0.3,1.1-0.6,1.6-1.1c0.5-0.5,0.8-1,1.1-1.6c0.3-0.6,0.4-1.3,0.4-2c0-0.7-0.1-1.3-0.4-2c-0.3-0.6-0.6-1.1-1.1-1.6
		c-0.5-0.5-1-0.8-1.6-1.1c-0.6-0.3-1.3-0.4-2-0.4h-1.7v-3.3h1.7c1.4,0,2.6,0.3,3.8,0.9c1.2,0.6,2.1,1.4,2.9,2.5
		c0.8-1,1.7-1.9,2.9-2.5s2.4-0.9,3.8-0.9h1.6v3.3h-1.6C151.7,20.6,151.1,20.7,150.4,21z"/>
</g>
<g>
	<path class="st2" d="M156.4,37.7l5.5-7.1c0.5-0.6,1-1.2,1.6-1.9v0h-6.5v-1.8h9.2l0,1.4l-5.4,7c-0.5,0.7-1,1.3-1.5,1.9v0h7.1v1.7
		h-9.8V37.7z"/>
	<path class="st2" d="M179.2,32.8c0,4.5-3.1,6.4-6,6.4c-3.3,0-5.8-2.4-5.8-6.2c0-4,2.6-6.4,6-6.4C176.9,26.6,179.2,29.1,179.2,32.8z
		 M169.7,32.9c0,2.6,1.5,4.6,3.7,4.6c2.1,0,3.7-2,3.7-4.7c0-2-1-4.6-3.6-4.6C170.8,28.2,169.7,30.6,169.7,32.9z"/>
	<path class="st2" d="M192.9,32.8c0,4.5-3.1,6.4-6,6.4c-3.3,0-5.8-2.4-5.8-6.2c0-4,2.6-6.4,6-6.4C190.6,26.6,192.9,29.1,192.9,32.8z
		 M183.3,32.9c0,2.6,1.5,4.6,3.7,4.6c2.1,0,3.7-2,3.7-4.7c0-2-1-4.6-3.6-4.6C184.5,28.2,183.3,30.6,183.3,32.9z"/>
</g>
<g>
</g>
<g>
</g>
<g>
</g>
<g>
</g>
<g>
</g>
<g>
</g>
<g>
</g>
<g>
</g>
<g>
</g>
<g>
</g>
<g>
</g>
<g>
</g>
<g>
</g>
<g>
</g>
<g>
</g>
</svg>
