<?xml version="1.0" encoding="utf-8"?>
<!-- Generator: Adobe Illustrator 19.1.0, SVG Export Plug-In . SVG Version: 6.00 Build 0)  -->
<svg version="1.1" id="Layer_1" xmlns="http://www.w3.org/2000/svg" xmlns:xlink="http://www.w3.org/1999/xlink" x="0px" y="0px"
	 viewBox="0 0 100 100" style="enable-background:new 0 0 100 100;" xml:space="preserve">
<style type="text/css">
	.st0{fill:none;stroke:#FFFFFF;stroke-width:6;stroke-miterlimit:10;}
	.st1{fill:none;stroke:#FFFFFF;stroke-width:4;stroke-miterlimit:10;}
	.st2{fill:#FFFFFF;}
</style>
<circle class="st0" cx="49.7" cy="50.2" r="41.9"/>
<path class="st1" d="M65.6,71H28.7c-1.8,0-3.4-1.5-3.4-3.4V32.2c0-1.8,1.5-3.4,3.4-3.4h15.5c4.6,0.8,3.8,5.9,9.5,7.6
	c0,0,9.7,0,9.7,0c1.8,0,3.4,1.5,3.4,3.4L69,67.7C69,69.5,67.5,71,65.6,71z"/>
<path class="st2" d="M69.1,73H31.7c-1.2,0-2.1-0.9-2.1-2.1c0,0,11.7-25.4,11.4-24.8c-0.3,0.7,0.4-2.1,3.5-2.1h36.1
	c1.2,0,2.5,1.3,2.1,2.1C82.3,46.9,71.7,70,71.3,71S70.3,73,69.1,73z"/>
</svg>
