<?xml version="1.0" encoding="utf-8"?>
<!-- Generator: Adobe Illustrator 19.1.0, SVG Export Plug-In . SVG Version: 6.00 Build 0)  -->
<svg version="1.1" id="Layer_1" xmlns="http://www.w3.org/2000/svg" xmlns:xlink="http://www.w3.org/1999/xlink" x="0px" y="0px"
	 viewBox="0 0 100 100" style="enable-background:new 0 0 100 100;" xml:space="preserve">
<style type="text/css">
	.st0{fill:none;stroke:#FFFFFF;stroke-width:6;stroke-miterlimit:10;}
	.st1{fill:#FFFFFF;}
</style>
<circle class="st0" cx="49.7" cy="50.2" r="41.9"/>
<g>
	<path class="st1" d="M71.6,76.3H28.4c-1.9,0-3.5-1.6-3.5-3.5V27.2c0-1.9,1.6-3.5,3.5-3.5h8.5v16.6c0,1.2,0.4,1.4,1.5,1.4h23.3
		c1.4,0,1.7-0.2,1.7-1.4V23.7h5.6l6.2,5.8v43.3C75.1,74.8,73.6,76.3,71.6,76.3z M69,70.2V47.8c0-0.8-0.7-1.4-1.4-1.4H32.4
		c-0.8,0-1.4,0.7-1.4,1.4v22.4c0,0.8,0.7,1.4,1.4,1.4h35.2C68.4,71.6,69,71,69,70.2z"/>
	<path class="st1" d="M57.6,38.7h-4.3c-0.5,0-0.8-0.4-0.8-0.8V26.4c0-0.5,0.4-0.8,0.8-0.8h4.3c0.5,0,0.8,0.4,0.8,0.8v11.4
		C58.5,38.4,58.1,38.7,57.6,38.7z"/>
</g>
</svg>
